<?xml version="1.0" standalone="no"?>
<!DOCTYPE svg PUBLIC "-//W3C//DTD SVG 20010904//EN"
 "http://www.w3.org/TR/2001/REC-SVG-20010904/DTD/svg10.dtd">
<svg version="1.0" xmlns="http://www.w3.org/2000/svg"
 width="260.000000pt" height="260.000000pt" viewBox="0 0 260.000000 260.000000"
 preserveAspectRatio="xMidYMid meet">
<metadata>
Created by potrace 1.11, written by Peter Selinger 2001-2013
</metadata>
<g transform="translate(0.000000,260.000000) scale(0.100000,-0.100000)"
fill="#000000" stroke="none">
<path d="M1126 2509 c-29 -43 -46 -48 -27 -7 10 20 10 21 -1 4 -7 -10 -29 -40
-50 -66 -20 -26 -62 -85 -94 -131 -61 -89 -84 -118 -65 -81 6 12 8 22 3 22
-11 0 -112 -296 -112 -328 0 -22 -1 -22 -30 -7 -27 14 -45 5 -20 -10 5 -3 15
-16 21 -27 9 -17 3 -15 -27 10 -41 34 -101 48 -70 16 21 -21 20 -23 -6 -17
-17 4 -13 -2 15 -21 20 -15 37 -28 37 -30 0 -2 -19 -2 -42 0 l-43 5 40 -22
c35 -19 38 -23 20 -29 -14 -5 -30 0 -50 16 -61 46 -146 79 -235 90 -94 12
-159 -45 -145 -128 6 -33 23 -57 86 -123 43 -45 86 -98 94 -119 9 -20 20 -85
25 -144 12 -131 25 -196 46 -232 17 -27 16 -27 -30 -70 -48 -44 -54 -61 -16
-40 12 6 29 9 38 5 14 -5 13 -9 -8 -20 -22 -13 -23 -14 -5 -15 19 0 19 -1 -2
-21 -15 -16 -34 -21 -73 -22 -48 0 -50 -1 -29 -13 13 -6 40 -13 59 -15 19 -2
38 -4 41 -5 3 -2 -18 -29 -48 -60 -29 -32 -53 -61 -53 -66 0 -5 18 3 40 17 35
22 40 23 40 8 0 -15 2 -16 10 -3 6 10 10 11 10 3 0 -7 -18 -31 -40 -53 -32
-32 -35 -38 -15 -30 20 8 23 7 18 -8 -3 -9 -12 -22 -20 -28 -12 -10 -11 -12 1
-17 9 -4 17 3 21 21 7 25 8 25 15 7 4 -12 0 -36 -11 -62 -21 -49 -13 -56 15
-15 10 15 32 38 49 51 26 22 29 22 24 5 -3 -10 -9 -32 -13 -49 l-7 -30 22 19
c11 11 21 14 21 8 0 -16 -49 -62 -66 -62 -8 0 -12 -4 -9 -10 8 -13 80 -13 123
-1 32 10 32 9 27 -22 -5 -30 -4 -31 10 -13 19 25 45 29 45 8 0 -8 3 -12 7 -8
4 3 12 -6 19 -21 l12 -28 2 35 c1 29 3 32 10 15 5 -11 9 -31 9 -45 1 -29 57
-88 64 -68 5 16 31 -60 29 -85 0 -9 3 -15 9 -12 5 4 9 -6 9 -21 0 -15 3 -24 6
-21 4 3 19 -10 34 -31 15 -20 35 -44 45 -52 16 -14 17 -13 11 8 -9 28 -3 28
25 0 12 -13 19 -16 15 -8 -4 8 1 4 13 -10 11 -14 26 -25 32 -25 7 0 16 -11 20
-25 6 -21 7 -22 9 -5 1 18 2 18 11 -3 5 -14 13 -20 20 -16 8 4 9 3 5 -4 -4 -7
-2 -12 3 -12 6 0 11 -10 12 -22 0 -14 3 -17 6 -9 4 10 9 8 20 -10 13 -23 14
-23 8 11 l-6 35 26 -42 c14 -24 27 -43 29 -43 1 0 1 15 -1 32 l-4 33 21 -32
c26 -39 30 -41 23 -10 -6 21 -4 21 24 -6 25 -23 31 -26 36 -13 7 17 27 17 40
1 4 -5 5 6 3 25 -3 19 -3 29 0 22 5 -10 9 -10 20 -1 18 15 20 -11 2 -30 -11
-10 -10 -11 2 -6 9 3 23 18 33 33 14 23 17 24 17 7 1 -19 1 -19 14 -2 14 18
15 18 25 0 9 -16 10 -16 11 5 0 13 4 21 10 17 5 -3 14 9 19 27 l9 33 1 -29 c1
-28 2 -29 15 -10 15 20 19 17 29 -31 3 -12 6 -6 7 15 2 32 3 33 9 10 7 -25 7
-25 26 10 10 19 28 46 41 58 13 13 29 37 36 53 8 17 19 28 28 26 18 -4 94 76
111 115 6 15 15 25 20 22 5 -2 11 7 15 22 10 39 30 75 38 67 3 -4 14 12 23 35
12 32 19 39 29 32 8 -8 14 -7 17 2 4 9 6 10 6 1 1 -7 7 -10 15 -7 8 3 11 15 8
30 -4 23 -3 24 23 14 23 -9 26 -8 21 5 -5 13 -2 14 16 4 21 -11 21 -11 -2 22
-23 34 -23 34 20 -6 44 -42 45 -41 22 25 -3 8 11 -1 31 -19 41 -39 44 -37 22
16 -13 31 -13 34 0 23 8 -7 15 -18 15 -25 0 -7 6 -18 13 -24 11 -9 13 -5 12
17 -1 15 -6 39 -10 54 -14 53 4 28 20 -27 20 -66 30 -72 21 -12 -19 125 -19
125 11 131 16 4 45 4 65 2 39 -5 61 8 31 19 -23 7 -63 43 -86 75 -16 24 -16
25 11 47 l27 22 -37 1 c-43 0 -48 9 -17 28 23 15 18 26 -12 28 -10 1 -23 2
-27 3 -5 0 -18 15 -31 32 l-23 30 34 -17 33 -17 -19 21 c-10 12 -26 24 -35 27
-9 2 -22 14 -29 26 -14 21 -13 22 32 17 45 -5 68 4 45 18 -8 4 -7 9 2 15 9 5
-1 12 -32 20 l-46 12 -6 116 c-6 107 -1 157 18 204 4 10 37 41 74 68 73 55
147 137 167 186 16 38 6 73 -28 97 -37 26 -137 21 -211 -10 -112 -47 -137 -55
-130 -38 6 17 -1 18 -28 4 -26 -14 -24 -9 12 45 35 52 33 71 -5 31 -22 -24
-25 -25 -29 -9 -4 16 -5 16 -6 -2 -2 -20 -51 -89 -51 -70 0 6 5 28 10 49 13
60 -1 67 -21 10 -10 -27 -18 -43 -18 -36 -1 19 -21 14 -21 -5 0 -15 -2 -14
-15 3 -20 26 -19 34 7 34 25 0 15 14 -24 34 -20 11 -23 19 -22 69 1 64 19 98
67 128 35 21 59 20 154 -7 36 -10 68 -29 109 -67 32 -28 52 -42 46 -30 -7 12
-31 37 -54 57 -23 20 -38 36 -34 36 14 0 86 -43 86 -52 0 -4 5 -8 11 -8 5 0 7
4 4 10 -3 5 0 7 9 4 8 -3 27 -29 41 -57 24 -47 26 -49 23 -19 -3 17 -4 32 -3
32 1 0 19 -16 40 -36 50 -45 58 -27 14 29 -18 23 -24 35 -14 27 35 -26 52 -44
70 -73 28 -44 29 -23 1 25 -34 57 -91 119 -143 153 -24 15 -43 29 -43 32 0 13
134 -78 170 -116 9 -9 49 -58 89 -108 41 -51 76 -93 77 -93 7 0 -21 57 -54
110 l-34 55 32 -30 c60 -54 68 -63 79 -81 6 -11 11 -14 11 -7 0 15 -83 125
-135 176 -23 23 -67 74 -97 112 -72 91 -85 102 -200 169 -144 84 -261 132
-353 147 -44 6 -88 12 -97 11 -32 -1 -19 7 27 19 25 6 44 13 43 15 -4 3 -276
-22 -328 -31 -50 -8 -205 -62 -248 -87 -20 -11 -52 -31 -69 -45 -45 -33 -41
-18 10 45 42 50 93 132 84 132 -2 0 -17 -18 -31 -41z m-50 -67 c-18 -16 -18
-16 -6 6 6 13 14 21 18 18 3 -4 -2 -14 -12 -24z"/>
<path d="M1031 154 c0 -11 3 -14 6 -6 3 7 2 16 -1 19 -3 4 -6 -2 -5 -13z"/>
</g>
</svg>
